<?xml version="1.0" encoding="UTF-8"?>
<svg id="Layer_1" data-name="Layer 1" xmlns="http://www.w3.org/2000/svg" viewBox="0 0 98.23 148.45">
  <defs>
    <style>
      .cls-1 {
        fill: #231f20;
      }

      .cls-2 {
        fill: #bb6ead;
      }
    </style>
  </defs>
  <path class="cls-1" d="M36.65,63.38c0,5.56-1.17,9.55-3.5,11.95-2.93,3.01-7.86,4.51-14.77,4.51s-11.84-1.5-14.77-4.51c-2.41-2.48-3.61-6.47-3.61-11.95.07-2.41.07-18.08,0-47.03C0,10.94,1.2,6.99,3.61,4.51,6.54,1.51,11.46,0,18.38,0s11.84,1.51,14.77,4.51c2.33,2.41,3.5,6.35,3.5,11.84v27.74h-19.74v22.56c0,.23.13.51.39.85.26.34.62.51,1.07.51.9,0,1.35-.45,1.35-1.35v-19.74h16.92v16.47ZM19.74,31.92V13.2c0-.45-.15-.81-.45-1.07-.3-.26-.6-.39-.9-.39-.98,0-1.46.49-1.46,1.47v18.72h2.82Z"/>
  <path class="cls-1" d="M56.95,17.5h-16.92V1.25h16.92v16.24ZM56.95,79.41h-16.92V20.31h16.92v59.1Z"/>
  <path class="cls-1" d="M97.1,63.06c0,5.57-1.17,9.51-3.5,11.84-3.01,3.01-7.93,4.51-14.77,4.51h-18.38v-12.41h18.38c.38,0,.7-.13.96-.4.26-.27.39-.6.39-.99v-2.55c-2.11,1.28-4.44,1.92-6.99,1.92-1.43,0-2.71-.19-3.83-.56-5.94-2.1-8.91-7.14-8.91-15.11V13.89c0-9.02,4.47-13.53,13.42-13.53,2.33,0,4.43.72,6.32,2.14v-1.24h16.92v61.8ZM80.19,51.78V13.55c0-.9-.45-1.35-1.35-1.35s-1.35.45-1.35,1.35v38.23c0,.38.11.7.34.96.23.26.57.39,1.02.39.9,0,1.35-.45,1.35-1.35Z"/>
  <path class="cls-1" d="M31.34,147.69h-14.46v-29.37h-2.41v29.37H0v-65.86h14.46v26.23h2.41v-26.23h14.46v65.86Z"/>
  <path class="cls-1" d="M65.04,100.17h-16.87v37.16c0,.82.42,1.24,1.25,1.24.26,0,.51-.11.77-.33.26-.22.39-.52.39-.9v-34.88h14.46v32.22c0,4.56-1.03,7.89-3.09,9.98-2.51,2.53-6.69,3.8-12.54,3.8s-10.12-1.27-12.63-3.8c-2.06-2.09-3.09-5.42-3.09-9.98v-52.84h14.46v6.08h16.87v12.26Z"/>
  <path class="cls-2" d="M98.23,134.62c0,4.69-1,8.05-2.99,10.07-2.44,2.47-6.65,3.71-12.63,3.71s-10.12-1.24-12.63-3.71c-2.06-2.03-3.09-5.38-3.09-10.07v-13.97h14.46v16.73c0,.25.11.51.34.76.22.25.53.38.91.38.32,0,.59-.11.82-.33.22-.22.34-.49.34-.81v-22.43c0-.38-.13-.68-.39-.9-.26-.22-.51-.33-.77-.33-.83,0-1.25.41-1.25,1.24v3.42h-14.46v-36.5h30.37v11.31h-15.91v11.79c1.74-1.2,3.57-1.81,5.5-1.81,3.66,0,6.48.97,8.44,2.9,1.96,1.93,2.94,4.77,2.94,8.51v20.05Z"/>
</svg>