<?xml version="1.0" encoding="UTF-8"?>
<svg id="Layer_3" data-name="Layer 3" xmlns="http://www.w3.org/2000/svg" viewBox="0 0 549.03 100">
  <defs>
    <style>
      .cls-1 {
        fill: #010101;
      }

      .cls-2 {
        fill: #fff;
      }
    </style>
  </defs>
  <path class="cls-2" d="M198.1,32.38v35.96c0,12.47-10.11,22.58-22.58,22.58h-35.96c-12.47,0-22.58-10.11-22.58-22.58v-35.96c0-12.47,10.11-22.58,22.58-22.58h35.96c12.47,0,22.58,10.11,22.58,22.58"/>
  <path class="cls-1" d="M158.21,58.24c-2.45.14-5-.96-5.13-3.32-.09-1.75,1.24-3.7,5.28-3.93.46-.03.91-.04,1.36-.04,1.46,0,2.84.14,4.08.42-.46,5.81-3.19,6.75-5.6,6.88ZM168.34,48.71c-.19-.09-.39-.18-.59-.27-.35-6.42-3.85-10.09-9.75-10.13h-.08c-3.52,0-6.45,1.5-8.26,4.24l3.24,2.22c1.35-2.04,3.46-2.48,5.02-2.48h.05c1.94.01,3.4.58,4.35,1.68.69.8,1.15,1.91,1.38,3.3-1.72-.29-3.58-.38-5.57-.27-5.6.32-9.2,3.59-8.96,8.13.12,2.3,1.27,4.28,3.23,5.58,1.66,1.09,3.79,1.63,6.01,1.51,2.93-.16,5.22-1.28,6.83-3.32,1.22-1.55,1.99-3.56,2.33-6.1,1.4.84,2.43,1.95,3,3.28.97,2.27,1.03,5.99-2.01,9.02-2.66,2.66-5.86,3.81-10.7,3.84-5.36-.04-9.42-1.76-12.05-5.11-2.47-3.14-3.75-7.67-3.79-13.47.05-5.8,1.32-10.34,3.79-13.47,2.64-3.35,6.69-5.07,12.05-5.11,5.4.04,9.53,1.77,12.27,5.14,1.34,1.65,2.35,3.73,3.02,6.15l3.8-1.01c-.81-2.98-2.08-5.55-3.81-7.68-3.51-4.32-8.64-6.53-15.26-6.58h-.03c-6.6.05-11.68,2.27-15.09,6.6-3.04,3.86-4.6,9.23-4.65,15.95v.03c.05,6.73,1.62,12.1,4.65,15.95,3.41,4.34,8.48,6.56,15.09,6.6h.03c5.87-.04,10-1.57,13.41-4.98,4.46-4.45,4.32-10.04,2.85-13.46-1.05-2.46-3.06-4.45-5.81-5.77"/>
  <path class="cls-2" d="M549.03,31.69v35.9c0,12.49-10.12,22.61-22.61,22.61h-35.9c-12.49,0-22.61-10.12-22.61-22.61V31.69c0-12.49,10.12-22.61,22.61-22.61h35.9c12.49,0,22.61,10.12,22.61,22.61"/>
  <path class="cls-1" d="M508.77,58.42c-5.07.16-9.23-4-9.06-9.07.15-4.6,3.88-8.33,8.48-8.48,5.07-.16,9.23,4,9.07,9.07-.15,4.6-3.88,8.33-8.48,8.48ZM508.68,35.45c-7.98-.11-14.5,6.41-14.39,14.39.1,7.65,6.34,13.89,13.99,13.99,7.99.11,14.5-6.41,14.39-14.39-.1-7.66-6.34-13.89-14-13.99"/>
  <path class="cls-1" d="M530.4,61.25c0,5.7-4.62,10.32-10.32,10.32h-23.21c-5.7,0-10.32-4.62-10.32-10.32v-23.21c0-5.7,4.62-10.32,10.32-10.32h23.21c5.7,0,10.32,4.62,10.32,10.32v23.21ZM520.08,22.3h-23.21c-8.69,0-15.73,7.05-15.73,15.73v23.21c0,8.69,7.04,15.73,15.73,15.73h23.21c8.69,0,15.74-7.05,15.74-15.73v-23.21c0-8.69-7.05-15.73-15.73-15.73"/>
  <path class="cls-2" d="M523.11,31.35c-2.24-.14-4.09,1.71-3.95,3.95.12,1.85,1.61,3.35,3.46,3.47,2.24.14,4.09-1.71,3.95-3.95-.12-1.85-1.61-3.35-3.46-3.46"/>
  <path class="cls-2" d="M81.12,31.97v35.34c0,12.64-10.25,22.89-22.89,22.89H22.89c-12.64,0-22.89-10.25-22.89-22.89V31.97C0,19.33,10.25,9.08,22.89,9.08h35.35c12.64,0,22.89,10.25,22.89,22.89"/>
  <path class="cls-1" d="M32.22,90.2l.06-28.97h-8.65v-10.32h8.64v-6.02h-.04v-.86c.04-2.64.18-5.71,1.04-8.56.9-2.96,2.45-5.3,4.77-7.15,1.95-1.56,4.32-2.61,6.85-3.05,1.79-.31,3.67-.46,5.74-.46,2.41,0,5.04.2,8.05.62l.73.1v9.69l-2.01.02-3.03.02c-2.15.02-4.39.25-6.28,1.86-1.87,1.59-2.84,4.07-2.83,7.17l-.04,5.55v1.06s13.35,0,13.35,0l-1.98,10.69h-11.19l-.04,28.61h-13.13"/>
  <path class="cls-2" d="M432.06,31.97v35.34c0,12.64-10.25,22.89-22.89,22.89h-35.34c-12.64,0-22.89-10.25-22.89-22.89V31.97c0-12.64,10.25-22.89,22.89-22.89h35.34c12.64,0,22.89,10.25,22.89,22.89"/>
  <path class="cls-1" d="M390.69,52.99l-1.8-2.63-13.95-20.42h5.92l11.38,16.5,1.8,2.62,14,20.29h-6.16l-11.18-16.36ZM395.95,46.8l-1.8-2.61-11.8-17.1h-12.83l17.45,25.53,1.8,2.63,11.59,16.96h13.11l-17.52-25.4"/>
  <path class="cls-1" d="M388.89,50.36l1.8,2.63-1.92,2.26-14.42,16.96h-4.07l16.69-19.59,1.92-2.25"/>
  <path class="cls-1" d="M412.71,27.08l-16.76,19.71-1.92,2.25-1.8-2.62,1.92-2.25,14.57-17.1h3.99"/>
  <path class="cls-2" d="M315.08,31.97v35.34c0,12.64-10.25,22.89-22.89,22.89h-35.35c-12.64,0-22.89-10.25-22.89-22.89V31.97c0-12.64,10.25-22.89,22.89-22.89h35.35c12.64,0,22.89,10.25,22.89,22.89"/>
  <path class="cls-1" d="M269.6,57.02v-14.75l12.77,7.38-12.77,7.37ZM298.07,37.81c-.57-2.12-2.23-3.78-4.35-4.35-3.83-1.03-19.21-1.03-19.21-1.03,0,0-15.38,0-19.21,1.03-2.12.57-3.78,2.23-4.35,4.35-1.03,3.83-1.03,11.83-1.03,11.83,0,0,0,8,1.03,11.83.57,2.12,2.23,3.78,4.35,4.35,3.83,1.03,19.21,1.03,19.21,1.03,0,0,15.37,0,19.21-1.03,2.11-.56,3.78-2.23,4.35-4.35,1.03-3.83,1.03-11.83,1.03-11.83,0,0,0-8-1.03-11.83"/>
</svg>